<?xml version="1.0" encoding="UTF-8"?>
<svg xmlns="http://www.w3.org/2000/svg" viewBox="0 0 64 64" width="64" height="64">
  <defs>
    <linearGradient id="g" x1="0" y1="0" x2="1" y2="1">
      <stop offset="0" stop-color="#FCD34D"/>
      <stop offset="1" stop-color="#B45309"/>
    </linearGradient>
    <filter id="shadow" x="-20%" y="-20%" width="140%" height="140%">
      <feDropShadow dx="0" dy="2" stdDeviation="2" flood-color="#000" flood-opacity="0.25"/>
    </filter>
  </defs>

  <!-- Background -->
  <circle cx="32" cy="32" r="30" fill="#0C0A09"/>

  <!-- Accent ring -->
  <circle cx="32" cy="32" r="27" fill="none" stroke="url(#g)" stroke-width="3" opacity="0.95"/>

  <!-- Monogram B -->
  <g filter="url(#shadow)">
    <path
      d="M24 18h14.2c6 0 10.3 3.2 10.3 8.3c0 3.2-1.7 5.8-4.7 7.1c3.6 1.2 5.7 4.1 5.7 7.8c0 5.8-4.7 9.8-11.8 9.8H24V18zm13.6 15.2c3.6 0 5.8-1.7 5.8-4.6c0-2.8-2.2-4.4-5.8-4.4H30v9h7.6zm.6 18.1c4.2 0 6.8-1.9 6.8-5.2c0-3.2-2.6-5.1-6.8-5.1H30v10.3h8.2z"
      fill="#FFFFFF"
      opacity="0.97"
    />
  </g>
</svg>
